# xmcd
#
# Track frame offsets:
#	183
#	16660
#	26633
#	35858
#	50670
#	65288
#	79478
#	91653
#	109203
#	127598
#	139563
#	149725
#	161440
#	175445
#	185650
#
# Disc length: 2607 seconds
#
# Revision: 1
# Processed by: cddbd v1.5.1PL2 Copyright (c) Steve Scherf et al.
# Submitted via: audiograbber 1.83.01
#
DISCID=cd0a2d0f
DTITLE=Various Artist - Bluegrass gospel live in Holland
DYEAR=1900
DGENRE=
TTITLE0=Val, Joe - Satan's jewelled crown
TTITLE1=Val, Joe - Crying Holy unto the Lord
TTITLE2=Good Ol' Persons - The mill was made of marble
TTITLE3=Meyer, Liz - Angel band
TTITLE4=White Mountain Bluegrass - I love God's way of living
TTITLE5=White Mountain Bluegrass - Church at the foot of the hill
TTITLE6=Paisley, Bob - When my time has come to go
TTITLE7=Gaudreau, Jimmy - Drifting too far from the shore
TTITLE8=Blue Flame Stringband - When I get home
TTITLE9=Trischka, Tony - Man in the middle
TTITLE10=Traver Hollow - Give me the roses
TTITLE11=Whetstone Run - Talking about that old time religion
TTITLE12=Whetstone Run - Jesus is whispering now
TTITLE13=Val, Joe - Angels rejoiced
TTITLE14=Val, Joe - Swing low, sweet chariot
EXTD=
EXTT0=
EXTT1=
EXTT2=
EXTT3=
EXTT4=
EXTT5=
EXTT6=
EXTT7=
EXTT8=
EXTT9=
EXTT10=
EXTT11=
EXTT12=
EXTT13=
EXTT14=
PLAYORDER=
